<svg version="1.1" baseProfile="full" width="990" height="200" stroke="none" xmlns="http://www.w3.org/2000/svg"><g class="symbol"><rect x="0" width="10" height="100%" fill="black"></rect><rect x="10" width="10" height="100%" fill="white"></rect><rect x="20" width="10" height="100%" fill="black"></rect><rect x="30" width="10" height="100%" fill="white"></rect><rect x="40" width="10" height="100%" fill="black"></rect><rect x="50" width="10" height="100%" fill="white"></rect><rect x="60" width="10" height="100%" fill="black"></rect><rect x="70" width="10" height="100%" fill="white"></rect><rect x="80" width="10" height="100%" fill="black"></rect><rect x="90" width="10" height="100%" fill="white"></rect><rect x="100" width="10" height="100%" fill="black"></rect></g><g class="delimiter"><rect x="110" width="10" height="100%" fill="white"></rect><rect x="120" width="10" height="100%" fill="white"></rect><rect x="130" width="10" height="100%" fill="white"></rect></g><g class="symbol"><rect x="140" width="10" height="100%" fill="black"></rect><rect x="150" width="10" height="100%" fill="white"></rect><rect x="160" width="10" height="100%" fill="white"></rect><rect x="170" width="10" height="100%" fill="white"></rect><rect x="180" width="10" height="100%" fill="black"></rect><rect x="190" width="10" height="100%" fill="white"></rect><rect x="200" width="10" height="100%" fill="black"></rect><rect x="210" width="10" height="100%" fill="white"></rect><rect x="220" width="10" height="100%" fill="white"></rect><rect x="230" width="10" height="100%" fill="white"></rect><rect x="240" width="10" height="100%" fill="black"></rect><rect x="250" width="10" height="100%" fill="white"></rect><rect x="260" width="10" height="100%" fill="black"></rect><rect x="270" width="10" height="100%" fill="white"></rect><rect x="280" width="10" height="100%" fill="black"></rect></g><g class="delimiter"><rect x="290" width="10" height="100%" fill="white"></rect><rect x="300" width="10" height="100%" fill="white"></rect><rect x="310" width="10" height="100%" fill="white"></rect></g><g class="symbol"><rect x="320" width="10" height="100%" fill="black"></rect><rect x="330" width="10" height="100%" fill="white"></rect><rect x="340" width="10" height="100%" fill="black"></rect><rect x="350" width="10" height="100%" fill="white"></rect><rect x="360" width="10" height="100%" fill="white"></rect><rect x="370" width="10" height="100%" fill="white"></rect><rect x="380" width="10" height="100%" fill="black"></rect><rect x="390" width="10" height="100%" fill="white"></rect><rect x="400" width="10" height="100%" fill="black"></rect><rect x="410" width="10" height="100%" fill="white"></rect><rect x="420" width="10" height="100%" fill="black"></rect><rect x="430" width="10" height="100%" fill="white"></rect><rect x="440" width="10" height="100%" fill="white"></rect><rect x="450" width="10" height="100%" fill="white"></rect><rect x="460" width="10" height="100%" fill="black"></rect></g><g class="delimiter"><rect x="470" width="10" height="100%" fill="white"></rect><rect x="480" width="10" height="100%" fill="white"></rect><rect x="490" width="10" height="100%" fill="white"></rect></g><g class="symbol"><rect x="500" width="10" height="100%" fill="black"></rect><rect x="510" width="10" height="100%" fill="white"></rect><rect x="520" width="10" height="100%" fill="black"></rect><rect x="530" width="10" height="100%" fill="white"></rect><rect x="540" width="10" height="100%" fill="white"></rect><rect x="550" width="10" height="100%" fill="white"></rect><rect x="560" width="10" height="100%" fill="black"></rect><rect x="570" width="10" height="100%" fill="white"></rect><rect x="580" width="10" height="100%" fill="black"></rect><rect x="590" width="10" height="100%" fill="white"></rect><rect x="600" width="10" height="100%" fill="black"></rect><rect x="610" width="10" height="100%" fill="white"></rect><rect x="620" width="10" height="100%" fill="black"></rect></g><g class="delimiter"><rect x="630" width="10" height="100%" fill="white"></rect><rect x="640" width="10" height="100%" fill="white"></rect><rect x="650" width="10" height="100%" fill="white"></rect></g><g class="symbol"><rect x="660" width="10" height="100%" fill="black"></rect><rect x="670" width="10" height="100%" fill="white"></rect><rect x="680" width="10" height="100%" fill="black"></rect><rect x="690" width="10" height="100%" fill="white"></rect><rect x="700" width="10" height="100%" fill="white"></rect><rect x="710" width="10" height="100%" fill="white"></rect><rect x="720" width="10" height="100%" fill="black"></rect><rect x="730" width="10" height="100%" fill="white"></rect><rect x="740" width="10" height="100%" fill="black"></rect><rect x="750" width="10" height="100%" fill="white"></rect><rect x="760" width="10" height="100%" fill="black"></rect><rect x="770" width="10" height="100%" fill="white"></rect><rect x="780" width="10" height="100%" fill="white"></rect><rect x="790" width="10" height="100%" fill="white"></rect><rect x="800" width="10" height="100%" fill="black"></rect></g><g class="delimiter"><rect x="810" width="10" height="100%" fill="white"></rect><rect x="820" width="10" height="100%" fill="white"></rect><rect x="830" width="10" height="100%" fill="white"></rect></g><g class="symbol"><rect x="840" width="10" height="100%" fill="black"></rect><rect x="850" width="10" height="100%" fill="white"></rect><rect x="860" width="10" height="100%" fill="black"></rect><rect x="870" width="10" height="100%" fill="white"></rect><rect x="880" width="10" height="100%" fill="black"></rect><rect x="890" width="10" height="100%" fill="white"></rect><rect x="900" width="10" height="100%" fill="black"></rect><rect x="910" width="10" height="100%" fill="white"></rect><rect x="920" width="10" height="100%" fill="white"></rect><rect x="930" width="10" height="100%" fill="white"></rect><rect x="940" width="10" height="100%" fill="black"></rect><rect x="950" width="10" height="100%" fill="white"></rect><rect x="960" width="10" height="100%" fill="white"></rect><rect x="970" width="10" height="100%" fill="white"></rect><rect x="980" width="10" height="100%" fill="black"></rect></g></svg>