<svg version="1.1" baseProfile="full" width="936" height="200" stroke="none" xmlns="http://www.w3.org/2000/svg"><g class="symbol"><rect x="0" width="8" height="100%" fill="black"></rect><rect x="8" width="8" height="100%" fill="white"></rect><rect x="16" width="8" height="100%" fill="black"></rect><rect x="24" width="8" height="100%" fill="white"></rect><rect x="32" width="8" height="100%" fill="black"></rect><rect x="40" width="8" height="100%" fill="white"></rect><rect x="48" width="8" height="100%" fill="black"></rect><rect x="56" width="8" height="100%" fill="white"></rect><rect x="64" width="8" height="100%" fill="black"></rect><rect x="72" width="8" height="100%" fill="white"></rect><rect x="80" width="8" height="100%" fill="black"></rect></g><g class="delimiter"><rect x="88" width="8" height="100%" fill="white"></rect><rect x="96" width="8" height="100%" fill="white"></rect><rect x="104" width="8" height="100%" fill="white"></rect></g><g class="symbol"><rect x="112" width="8" height="100%" fill="black"></rect><rect x="120" width="8" height="100%" fill="white"></rect><rect x="128" width="8" height="100%" fill="white"></rect><rect x="136" width="8" height="100%" fill="white"></rect><rect x="144" width="8" height="100%" fill="black"></rect><rect x="152" width="8" height="100%" fill="white"></rect><rect x="160" width="8" height="100%" fill="black"></rect><rect x="168" width="8" height="100%" fill="white"></rect><rect x="176" width="8" height="100%" fill="white"></rect><rect x="184" width="8" height="100%" fill="white"></rect><rect x="192" width="8" height="100%" fill="black"></rect><rect x="200" width="8" height="100%" fill="white"></rect><rect x="208" width="8" height="100%" fill="black"></rect><rect x="216" width="8" height="100%" fill="white"></rect><rect x="224" width="8" height="100%" fill="black"></rect></g><g class="delimiter"><rect x="232" width="8" height="100%" fill="white"></rect><rect x="240" width="8" height="100%" fill="white"></rect><rect x="248" width="8" height="100%" fill="white"></rect></g><g class="symbol"><rect x="256" width="8" height="100%" fill="black"></rect><rect x="264" width="8" height="100%" fill="white"></rect><rect x="272" width="8" height="100%" fill="black"></rect><rect x="280" width="8" height="100%" fill="white"></rect><rect x="288" width="8" height="100%" fill="white"></rect><rect x="296" width="8" height="100%" fill="white"></rect><rect x="304" width="8" height="100%" fill="black"></rect><rect x="312" width="8" height="100%" fill="white"></rect><rect x="320" width="8" height="100%" fill="black"></rect><rect x="328" width="8" height="100%" fill="white"></rect><rect x="336" width="8" height="100%" fill="black"></rect><rect x="344" width="8" height="100%" fill="white"></rect><rect x="352" width="8" height="100%" fill="white"></rect><rect x="360" width="8" height="100%" fill="white"></rect><rect x="368" width="8" height="100%" fill="black"></rect></g><g class="delimiter"><rect x="376" width="8" height="100%" fill="white"></rect><rect x="384" width="8" height="100%" fill="white"></rect><rect x="392" width="8" height="100%" fill="white"></rect></g><g class="symbol"><rect x="400" width="8" height="100%" fill="black"></rect><rect x="408" width="8" height="100%" fill="white"></rect><rect x="416" width="8" height="100%" fill="black"></rect><rect x="424" width="8" height="100%" fill="white"></rect><rect x="432" width="8" height="100%" fill="white"></rect><rect x="440" width="8" height="100%" fill="white"></rect><rect x="448" width="8" height="100%" fill="black"></rect><rect x="456" width="8" height="100%" fill="white"></rect><rect x="464" width="8" height="100%" fill="black"></rect><rect x="472" width="8" height="100%" fill="white"></rect><rect x="480" width="8" height="100%" fill="black"></rect><rect x="488" width="8" height="100%" fill="white"></rect><rect x="496" width="8" height="100%" fill="black"></rect></g><g class="delimiter"><rect x="504" width="8" height="100%" fill="white"></rect><rect x="512" width="8" height="100%" fill="white"></rect><rect x="520" width="8" height="100%" fill="white"></rect></g><g class="symbol"><rect x="528" width="8" height="100%" fill="black"></rect><rect x="536" width="8" height="100%" fill="white"></rect><rect x="544" width="8" height="100%" fill="white"></rect><rect x="552" width="8" height="100%" fill="white"></rect><rect x="560" width="8" height="100%" fill="black"></rect><rect x="568" width="8" height="100%" fill="white"></rect><rect x="576" width="8" height="100%" fill="black"></rect><rect x="584" width="8" height="100%" fill="white"></rect><rect x="592" width="8" height="100%" fill="black"></rect><rect x="600" width="8" height="100%" fill="white"></rect><rect x="608" width="8" height="100%" fill="white"></rect><rect x="616" width="8" height="100%" fill="white"></rect><rect x="624" width="8" height="100%" fill="black"></rect><rect x="632" width="8" height="100%" fill="white"></rect><rect x="640" width="8" height="100%" fill="black"></rect></g><g class="delimiter"><rect x="648" width="8" height="100%" fill="white"></rect><rect x="656" width="8" height="100%" fill="white"></rect><rect x="664" width="8" height="100%" fill="white"></rect></g><g class="symbol"><rect x="672" width="8" height="100%" fill="black"></rect><rect x="680" width="8" height="100%" fill="white"></rect><rect x="688" width="8" height="100%" fill="white"></rect><rect x="696" width="8" height="100%" fill="white"></rect><rect x="704" width="8" height="100%" fill="black"></rect><rect x="712" width="8" height="100%" fill="white"></rect><rect x="720" width="8" height="100%" fill="black"></rect><rect x="728" width="8" height="100%" fill="white"></rect><rect x="736" width="8" height="100%" fill="black"></rect><rect x="744" width="8" height="100%" fill="white"></rect><rect x="752" width="8" height="100%" fill="white"></rect><rect x="760" width="8" height="100%" fill="white"></rect><rect x="768" width="8" height="100%" fill="black"></rect><rect x="776" width="8" height="100%" fill="white"></rect><rect x="784" width="8" height="100%" fill="black"></rect></g><g class="delimiter"><rect x="792" width="8" height="100%" fill="white"></rect><rect x="800" width="8" height="100%" fill="white"></rect><rect x="808" width="8" height="100%" fill="white"></rect></g><g class="symbol"><rect x="816" width="8" height="100%" fill="black"></rect><rect x="824" width="8" height="100%" fill="white"></rect><rect x="832" width="8" height="100%" fill="black"></rect><rect x="840" width="8" height="100%" fill="white"></rect><rect x="848" width="8" height="100%" fill="black"></rect><rect x="856" width="8" height="100%" fill="white"></rect><rect x="864" width="8" height="100%" fill="black"></rect><rect x="872" width="8" height="100%" fill="white"></rect><rect x="880" width="8" height="100%" fill="white"></rect><rect x="888" width="8" height="100%" fill="white"></rect><rect x="896" width="8" height="100%" fill="black"></rect><rect x="904" width="8" height="100%" fill="white"></rect><rect x="912" width="8" height="100%" fill="white"></rect><rect x="920" width="8" height="100%" fill="white"></rect><rect x="928" width="8" height="100%" fill="black"></rect></g></svg>