<svg version="1.1" baseProfile="full" width="860" height="200" stroke="none" xmlns="http://www.w3.org/2000/svg"><g class="symbol"><rect x="0" width="4" height="100%" fill="black"></rect><rect x="4" width="4" height="100%" fill="white"></rect><rect x="8" width="4" height="100%" fill="black"></rect><rect x="12" width="4" height="100%" fill="white"></rect><rect x="16" width="4" height="100%" fill="black"></rect><rect x="20" width="4" height="100%" fill="white"></rect><rect x="24" width="4" height="100%" fill="black"></rect><rect x="28" width="4" height="100%" fill="white"></rect><rect x="32" width="4" height="100%" fill="black"></rect><rect x="36" width="4" height="100%" fill="white"></rect><rect x="40" width="4" height="100%" fill="black"></rect></g><g class="delimiter"><rect x="44" width="4" height="100%" fill="white"></rect><rect x="48" width="4" height="100%" fill="white"></rect><rect x="52" width="4" height="100%" fill="white"></rect></g><g class="symbol"><rect x="56" width="4" height="100%" fill="black"></rect><rect x="60" width="4" height="100%" fill="white"></rect><rect x="64" width="4" height="100%" fill="white"></rect><rect x="68" width="4" height="100%" fill="white"></rect><rect x="72" width="4" height="100%" fill="black"></rect><rect x="76" width="4" height="100%" fill="white"></rect><rect x="80" width="4" height="100%" fill="black"></rect><rect x="84" width="4" height="100%" fill="white"></rect><rect x="88" width="4" height="100%" fill="white"></rect><rect x="92" width="4" height="100%" fill="white"></rect><rect x="96" width="4" height="100%" fill="black"></rect><rect x="100" width="4" height="100%" fill="white"></rect><rect x="104" width="4" height="100%" fill="black"></rect><rect x="108" width="4" height="100%" fill="white"></rect><rect x="112" width="4" height="100%" fill="black"></rect></g><g class="delimiter"><rect x="116" width="4" height="100%" fill="white"></rect><rect x="120" width="4" height="100%" fill="white"></rect><rect x="124" width="4" height="100%" fill="white"></rect></g><g class="symbol"><rect x="128" width="4" height="100%" fill="black"></rect><rect x="132" width="4" height="100%" fill="white"></rect><rect x="136" width="4" height="100%" fill="black"></rect><rect x="140" width="4" height="100%" fill="white"></rect><rect x="144" width="4" height="100%" fill="white"></rect><rect x="148" width="4" height="100%" fill="white"></rect><rect x="152" width="4" height="100%" fill="black"></rect><rect x="156" width="4" height="100%" fill="white"></rect><rect x="160" width="4" height="100%" fill="black"></rect><rect x="164" width="4" height="100%" fill="white"></rect><rect x="168" width="4" height="100%" fill="black"></rect><rect x="172" width="4" height="100%" fill="white"></rect><rect x="176" width="4" height="100%" fill="white"></rect><rect x="180" width="4" height="100%" fill="white"></rect><rect x="184" width="4" height="100%" fill="black"></rect></g><g class="delimiter"><rect x="188" width="4" height="100%" fill="white"></rect><rect x="192" width="4" height="100%" fill="white"></rect><rect x="196" width="4" height="100%" fill="white"></rect></g><g class="symbol"><rect x="200" width="4" height="100%" fill="black"></rect><rect x="204" width="4" height="100%" fill="white"></rect><rect x="208" width="4" height="100%" fill="black"></rect><rect x="212" width="4" height="100%" fill="white"></rect><rect x="216" width="4" height="100%" fill="white"></rect><rect x="220" width="4" height="100%" fill="white"></rect><rect x="224" width="4" height="100%" fill="black"></rect><rect x="228" width="4" height="100%" fill="white"></rect><rect x="232" width="4" height="100%" fill="black"></rect><rect x="236" width="4" height="100%" fill="white"></rect><rect x="240" width="4" height="100%" fill="black"></rect><rect x="244" width="4" height="100%" fill="white"></rect><rect x="248" width="4" height="100%" fill="black"></rect></g><g class="delimiter"><rect x="252" width="4" height="100%" fill="white"></rect><rect x="256" width="4" height="100%" fill="white"></rect><rect x="260" width="4" height="100%" fill="white"></rect></g><g class="symbol"><rect x="264" width="4" height="100%" fill="black"></rect><rect x="268" width="4" height="100%" fill="white"></rect><rect x="272" width="4" height="100%" fill="black"></rect><rect x="276" width="4" height="100%" fill="white"></rect><rect x="280" width="4" height="100%" fill="black"></rect><rect x="284" width="4" height="100%" fill="white"></rect><rect x="288" width="4" height="100%" fill="black"></rect><rect x="292" width="4" height="100%" fill="white"></rect><rect x="296" width="4" height="100%" fill="black"></rect><rect x="300" width="4" height="100%" fill="white"></rect><rect x="304" width="4" height="100%" fill="white"></rect><rect x="308" width="4" height="100%" fill="white"></rect><rect x="312" width="4" height="100%" fill="black"></rect></g><g class="delimiter"><rect x="316" width="4" height="100%" fill="white"></rect><rect x="320" width="4" height="100%" fill="white"></rect><rect x="324" width="4" height="100%" fill="white"></rect></g><g class="symbol"><rect x="328" width="4" height="100%" fill="black"></rect><rect x="332" width="4" height="100%" fill="white"></rect><rect x="336" width="4" height="100%" fill="black"></rect><rect x="340" width="4" height="100%" fill="white"></rect><rect x="344" width="4" height="100%" fill="black"></rect><rect x="348" width="4" height="100%" fill="white"></rect><rect x="352" width="4" height="100%" fill="black"></rect><rect x="356" width="4" height="100%" fill="white"></rect><rect x="360" width="4" height="100%" fill="black"></rect><rect x="364" width="4" height="100%" fill="white"></rect><rect x="368" width="4" height="100%" fill="white"></rect><rect x="372" width="4" height="100%" fill="white"></rect><rect x="376" width="4" height="100%" fill="black"></rect></g><g class="delimiter"><rect x="380" width="4" height="100%" fill="white"></rect><rect x="384" width="4" height="100%" fill="white"></rect><rect x="388" width="4" height="100%" fill="white"></rect></g><g class="symbol"><rect x="392" width="4" height="100%" fill="black"></rect><rect x="396" width="4" height="100%" fill="white"></rect><rect x="400" width="4" height="100%" fill="black"></rect><rect x="404" width="4" height="100%" fill="white"></rect><rect x="408" width="4" height="100%" fill="black"></rect><rect x="412" width="4" height="100%" fill="white"></rect><rect x="416" width="4" height="100%" fill="white"></rect><rect x="420" width="4" height="100%" fill="white"></rect><rect x="424" width="4" height="100%" fill="black"></rect><rect x="428" width="4" height="100%" fill="white"></rect><rect x="432" width="4" height="100%" fill="white"></rect><rect x="436" width="4" height="100%" fill="white"></rect><rect x="440" width="4" height="100%" fill="black"></rect><rect x="444" width="4" height="100%" fill="white"></rect><rect x="448" width="4" height="100%" fill="black"></rect></g><g class="delimiter"><rect x="452" width="4" height="100%" fill="white"></rect><rect x="456" width="4" height="100%" fill="white"></rect><rect x="460" width="4" height="100%" fill="white"></rect></g><g class="symbol"><rect x="464" width="4" height="100%" fill="black"></rect><rect x="468" width="4" height="100%" fill="white"></rect><rect x="472" width="4" height="100%" fill="black"></rect><rect x="476" width="4" height="100%" fill="white"></rect><rect x="480" width="4" height="100%" fill="black"></rect><rect x="484" width="4" height="100%" fill="white"></rect><rect x="488" width="4" height="100%" fill="black"></rect><rect x="492" width="4" height="100%" fill="white"></rect><rect x="496" width="4" height="100%" fill="black"></rect><rect x="500" width="4" height="100%" fill="white"></rect><rect x="504" width="4" height="100%" fill="white"></rect><rect x="508" width="4" height="100%" fill="white"></rect><rect x="512" width="4" height="100%" fill="black"></rect></g><g class="delimiter"><rect x="516" width="4" height="100%" fill="white"></rect><rect x="520" width="4" height="100%" fill="white"></rect><rect x="524" width="4" height="100%" fill="white"></rect></g><g class="symbol"><rect x="528" width="4" height="100%" fill="black"></rect><rect x="532" width="4" height="100%" fill="white"></rect><rect x="536" width="4" height="100%" fill="black"></rect><rect x="540" width="4" height="100%" fill="white"></rect><rect x="544" width="4" height="100%" fill="black"></rect><rect x="548" width="4" height="100%" fill="white"></rect><rect x="552" width="4" height="100%" fill="black"></rect><rect x="556" width="4" height="100%" fill="white"></rect><rect x="560" width="4" height="100%" fill="black"></rect><rect x="564" width="4" height="100%" fill="white"></rect><rect x="568" width="4" height="100%" fill="white"></rect><rect x="572" width="4" height="100%" fill="white"></rect><rect x="576" width="4" height="100%" fill="black"></rect></g><g class="delimiter"><rect x="580" width="4" height="100%" fill="white"></rect><rect x="584" width="4" height="100%" fill="white"></rect><rect x="588" width="4" height="100%" fill="white"></rect></g><g class="symbol"><rect x="592" width="4" height="100%" fill="black"></rect><rect x="596" width="4" height="100%" fill="white"></rect><rect x="600" width="4" height="100%" fill="black"></rect><rect x="604" width="4" height="100%" fill="white"></rect><rect x="608" width="4" height="100%" fill="black"></rect><rect x="612" width="4" height="100%" fill="white"></rect><rect x="616" width="4" height="100%" fill="white"></rect><rect x="620" width="4" height="100%" fill="white"></rect><rect x="624" width="4" height="100%" fill="black"></rect><rect x="628" width="4" height="100%" fill="white"></rect><rect x="632" width="4" height="100%" fill="white"></rect><rect x="636" width="4" height="100%" fill="white"></rect><rect x="640" width="4" height="100%" fill="black"></rect><rect x="644" width="4" height="100%" fill="white"></rect><rect x="648" width="4" height="100%" fill="black"></rect></g><g class="delimiter"><rect x="652" width="4" height="100%" fill="white"></rect><rect x="656" width="4" height="100%" fill="white"></rect><rect x="660" width="4" height="100%" fill="white"></rect></g><g class="symbol"><rect x="664" width="4" height="100%" fill="black"></rect><rect x="668" width="4" height="100%" fill="white"></rect><rect x="672" width="4" height="100%" fill="white"></rect><rect x="676" width="4" height="100%" fill="white"></rect><rect x="680" width="4" height="100%" fill="black"></rect><rect x="684" width="4" height="100%" fill="white"></rect><rect x="688" width="4" height="100%" fill="black"></rect><rect x="692" width="4" height="100%" fill="white"></rect><rect x="696" width="4" height="100%" fill="white"></rect><rect x="700" width="4" height="100%" fill="white"></rect><rect x="704" width="4" height="100%" fill="black"></rect><rect x="708" width="4" height="100%" fill="white"></rect><rect x="712" width="4" height="100%" fill="black"></rect><rect x="716" width="4" height="100%" fill="white"></rect><rect x="720" width="4" height="100%" fill="black"></rect></g><g class="delimiter"><rect x="724" width="4" height="100%" fill="white"></rect><rect x="728" width="4" height="100%" fill="white"></rect><rect x="732" width="4" height="100%" fill="white"></rect></g><g class="symbol"><rect x="736" width="4" height="100%" fill="black"></rect><rect x="740" width="4" height="100%" fill="white"></rect><rect x="744" width="4" height="100%" fill="white"></rect><rect x="748" width="4" height="100%" fill="white"></rect><rect x="752" width="4" height="100%" fill="black"></rect><rect x="756" width="4" height="100%" fill="white"></rect><rect x="760" width="4" height="100%" fill="black"></rect><rect x="764" width="4" height="100%" fill="white"></rect><rect x="768" width="4" height="100%" fill="black"></rect><rect x="772" width="4" height="100%" fill="white"></rect><rect x="776" width="4" height="100%" fill="black"></rect><rect x="780" width="4" height="100%" fill="white"></rect><rect x="784" width="4" height="100%" fill="black"></rect></g><g class="delimiter"><rect x="788" width="4" height="100%" fill="white"></rect><rect x="792" width="4" height="100%" fill="white"></rect><rect x="796" width="4" height="100%" fill="white"></rect></g><g class="symbol"><rect x="800" width="4" height="100%" fill="black"></rect><rect x="804" width="4" height="100%" fill="white"></rect><rect x="808" width="4" height="100%" fill="black"></rect><rect x="812" width="4" height="100%" fill="white"></rect><rect x="816" width="4" height="100%" fill="black"></rect><rect x="820" width="4" height="100%" fill="white"></rect><rect x="824" width="4" height="100%" fill="black"></rect><rect x="828" width="4" height="100%" fill="white"></rect><rect x="832" width="4" height="100%" fill="white"></rect><rect x="836" width="4" height="100%" fill="white"></rect><rect x="840" width="4" height="100%" fill="black"></rect><rect x="844" width="4" height="100%" fill="white"></rect><rect x="848" width="4" height="100%" fill="white"></rect><rect x="852" width="4" height="100%" fill="white"></rect><rect x="856" width="4" height="100%" fill="black"></rect></g></svg>